<?xml version="1.0" standalone="no"?>
<!DOCTYPE svg PUBLIC "-//W3C//DTD SVG 1.1//EN" "http://www.w3.org/Graphics/SVG/1.1/DTD/svg11.dtd" >
<!--
2013-9-30: Created.
-->
<svg>
<metadata>
Created by iconfont
</metadata>
<defs>

<font id="iconfont" horiz-adv-x="1024" >
  <font-face
    font-family="iconfont"
    font-weight="500"
    font-stretch="normal"
    units-per-em="1024"
    ascent="896"
    descent="-128"
  />
    <missing-glyph />
    
    <glyph glyph-name="close" unicode="&#58883;" d="M632.46336 384L1024 775.53664 903.53664 896 512 504.46336 120.46336 896 0 775.53664 391.53664 384 0-7.536640000000034 120.46336-128l391.53664 391.53664L903.53664-128 1024-7.536640000000034 632.46336 384z"  horiz-adv-x="1024" />

    
    <glyph glyph-name="arrow-right" unicode="&#58884;" d="M307.2 896l389.907692-389.907692 110.276923-110.276923-110.276923-110.276923-389.907692-389.907693L196.923077 5.907691999999997l389.907692 389.907693L196.923077 785.723077z"  horiz-adv-x="1024" />

    
    <glyph glyph-name="play" unicode="&#58885;" d="M153.6-128l716.8 512L153.6 896z"  horiz-adv-x="1024" />

    
    <glyph glyph-name="arrow-left" unicode="&#58886;" d="M697.107692 896L307.2 506.092308 196.923077 395.815385l110.276923-110.276923 389.907692-389.907693 110.276923 110.276923-389.907692 389.907693 389.907692 389.907692z"  horiz-adv-x="1024" />

    
    <glyph glyph-name="fullscreen" unicode="&#58887;" d="M0 520.5333330000001h151.703704V744.296296h227.555555V896H0v-375.466667zM872.296296 23.703704000000016h-227.555555v-151.703704h379.259259V251.25925900000004h-151.703704v-227.555555zM644.740741 896v-151.703704h227.555555v-227.555555h151.703704V896H644.740741zM151.703704 251.25925900000004H0v-379.259259h379.259259v151.703704H151.703704v227.555555z"  horiz-adv-x="1024" />

    
    <glyph glyph-name="refresh" unicode="&#58888;" d="M606.549333-95.00444400000003v82.56474c13.463704 0 107.823407 0.682667 120.945778 1.972148 205.065481 20.404148 365.37837 196.532148 365.37837 410.737778 0 227.934815-181.43763 412.709926-405.238518 412.709926-223.838815 0-405.238519-184.775111-405.238519-412.709926H201.348741C201.348741 673.792 419.043556 895.544889 687.597037 895.544889c268.553481 0 486.286222-221.752889 486.286222-495.274667 0-258.389333-194.294519-470.584889-442.216296-493.226666-14.563556-1.327407-110.288593-2.010074-125.155556-2.010075zM606.549333-12.439704000000006c22.376296 0 40.542815-18.469926 40.542815-41.263407 0-22.755556-18.166519-41.263407-40.542815-41.263408s-40.504889 18.507852-40.504889 41.263408c0 22.793481 18.128593 41.263407 40.504889 41.263407zM242.725926 175.40740700000003l-227.555556 227.555556h455.111111z"  horiz-adv-x="1175" />

    
    <glyph glyph-name="down" unicode="&#58889;" d="M0-128v68.5056h1160.533333V-128H0z m921.6 582.212267l-341.333333-339.0464-341.333334 339.0464h273.066667V896h136.533333v-441.787733h273.066667z"  horiz-adv-x="1160" />

    
    <glyph glyph-name="quotes" unicode="&#58894;" d="M0 896h488.727273L418.909091-128H69.818182L0 896z m628.363636 0H1117.090909l-69.818182-1024H698.181818L628.363636 896z"  horiz-adv-x="1117" />

    
    <glyph glyph-name="back-slash" unicode="&#58896;" d="M275.692308 896l305.939692-1024H748.307692L442.368 896z"  horiz-adv-x="1024" />

    
    <glyph glyph-name="zuokuohao" unicode="&#58897;" d="M682.666667 896v-88.795429H616.643048c-42.520381 0-62.659048-23.015619-62.659048-71.241142V521.020952c0-68.022857-32.475429-114.054095-96.256-137.069714 63.780571-26.331429 96.256-71.241143 96.256-137.020952v-216.015238c0-46.031238 20.138667-70.168381 62.659048-70.168381H682.666667V-128H596.455619c-49.249524 0-87.28381 16.432762-114.102857 47.152762-24.624762 28.525714-36.961524 67.974095-36.961524 116.199619v206.116571c0 31.841524-6.729143 54.857143-20.138667 69.095619-15.652571 17.554286-43.641905 26.282667-83.919238 28.476953V428.958476c40.277333 2.194286 68.266667 12.04419 83.870477 28.476953 13.458286 15.36 20.187429 38.375619 20.187428 69.095619V731.574857c0 49.298286 12.336762 88.746667 36.961524 117.272381C509.17181 880.64 547.206095 896 596.455619 896H682.666667z"  horiz-adv-x="1024" />

    
    <glyph glyph-name="youkuohao" unicode="&#58898;" d="M341.333333 896v-88.795429h66.023619c42.520381 0 62.659048-23.015619 62.659048-71.241142V521.020952c0-68.022857 32.475429-114.054095 96.256-137.069714-63.780571-26.331429-96.256-71.241143-96.256-137.020952v-216.015238c0-46.031238-20.138667-70.168381-62.659048-70.168381H341.333333V-128h86.211048c49.249524 0 87.28381 16.432762 114.102857 47.152762 24.624762 28.525714 36.961524 67.974095 36.961524 116.199619v206.116571c0 31.841524 6.729143 54.857143 20.138667 69.095619 15.652571 17.554286 43.641905 26.282667 83.919238 28.476953V428.958476c-40.277333 2.194286-68.266667 12.04419-83.870477 28.476953-13.458286 15.36-20.187429 38.375619-20.187428 69.095619V731.574857c0 49.298286-12.336762 88.746667-36.961524 117.272381C514.82819 880.64 476.793905 896 427.544381 896H341.333333z"  horiz-adv-x="1024" />

    
    <glyph glyph-name="double-slash" unicode="&#58899;" d="M381.383111 896h325.518222L325.518222-128H0l381.383111 1024z m544.654222 0H1251.555556L870.172444-128H544.654222l381.383111 1024z"  horiz-adv-x="1251" />

    
    <glyph glyph-name="thumbs-up" unicode="&#58901;" d="M368 567.808H192v-689.28h736l128 689.28H768V896H512L368 567.808zM0-121.47199999999998V567.808h64v-689.28H0z"  horiz-adv-x="1088" />

    
    <glyph glyph-name="thumbs-o-up" unicode="&#58905;" d="M697.079742 466.580645V796.903226h-101.07871l-148.645161-330.322581h-146.663226v-495.483871H879.31871l94.373161 495.483871h-276.612129z m-313.806452 99.096774l148.645162 330.322581h264.258064v-330.322581h297.290323l-132.129033-693.677419h-759.741935V565.677419h181.677419zM3.402323-128h66.064516V565.677419h-66.064516z"  horiz-adv-x="1123" />

    
    <glyph glyph-name="like" unicode="&#58906;" d="M557.614545 793.755152c120.707879 118.225455 323.521939 111.274667 446.029576-11.23297 117.666909-117.72897 134.268121-323.025455 22.559031-434.734546l-44.218182-44.249212L590.506667-87.87781800000005l-32.985212-32.985212L100.258909 336.39951499999995C-17.904485 457.231515-10.984727 660.045576 111.522909 782.553212 229.189818 900.220121 434.517333 916.790303 546.257455 805.081212l11.35709-11.357091z m-0.06206-782.956607l358.586182 358.524122 44.218181 44.280242c72.797091 72.828121 60.912485 219.601455-22.55903 303.07297-87.753697 87.784727-233.347879 92.253091-316.509091 9.091879L557.614545 662.093576l-32.892121 32.923151-44.280242 44.280243c-72.828121 72.766061-219.632485 60.881455-303.104-22.590061-87.753697-87.753697-92.222061-233.378909-9.060849-316.540121l63.705212-63.705212 325.56994-325.663031zM434.424242 399.515152h248.242425v62.060606h-248.242425z"  horiz-adv-x="1117" />

    
    <glyph glyph-name="notice" unicode="&#58907;" d="M529.123556 42.66666699999996a85.333333 85.333333 0 1 0 0-170.666667 85.333333 85.333333 0 0 0 0 170.666667M99.555556 99.55555600000002h824.888888v56.888888H99.555556zM415.374222 839.111111h170.666667V896h-170.666667zM256 153.96977800000002V426.666667a256 256 0 0 0 512 0v-272.696889h85.333333V426.666667c0 188.501333-152.832 341.333333-341.333333 341.333333s-341.333333-152.832-341.333333-341.333333v-272.696889h85.333333z"  horiz-adv-x="1024" />

    
    <glyph glyph-name="search" unicode="&#58908;" d="M803.451586 207.34234500000002l236.544-234.743173-74.893241-74.363586-232.342069 230.611862a441.626483 441.626483 0 0 0-291.380966-108.967724C197.59669 19.87972400000001 0 215.993379 0 457.939862 0 699.851034 197.59669 896 441.37931 896S882.758621 699.851034 882.758621 457.939862c0-93.21931-29.307586-179.588414-79.307035-250.597517zM441.37931 790.068966C256.105931 790.068966 105.931034 641.1299309999999 105.931034 457.374897c0-183.719724 150.174897-332.694069 335.448276-332.694069s335.448276 148.974345 335.448276 332.694069C776.827586 641.1299309999999 626.65269 790.068966 441.37931 790.068966z"  horiz-adv-x="1059" />

    
    <glyph glyph-name="time" unicode="&#58909;" d="M607.195429 786.285714c252.489143 0 457.142857-204.653714 457.142857-457.142857 0-252.452571-204.653714-457.142857-457.142857-457.142857s-457.142857 204.690286-457.142858 457.142857c0 252.489143 204.653714 457.142857 457.142858 457.142857z m0-146.285714a310.857143 310.857143 0 1 1 0-621.714286 310.857143 310.857143 0 0 1 0 621.714286zM336.201143 829.074286L52.114286 544.877714 0 596.918857 284.086857 881.078857zM845.019429 844.982857l278.272-278.381714 51.090285 50.944-278.308571 278.381714z"  horiz-adv-x="1206" />

    
    <glyph glyph-name="location" unicode="&#58910;" d="M411.406607 189.25929399999995l-14.245647 17.167059C342.346842 272.62494100000004 302.230136 324.39717599999994 283.557195 353.88235299999997A274.672941 274.672941 0 0 0 240.940725 501.458824C240.940725 652.950588 362.435313 775.529412 511.999548 775.529412V896C295.634372 896 120.470136 719.2094119999999 120.470136 501.458824c0-76.107294 21.504-149.202824 61.31953-212.028236 22.287059-35.237647 64.542118-89.750588 122.578823-159.834353l14.576942-17.52847a8151.792941 8151.792941 0 0 1 147.968-172.092236l45.025882-50.778353 45.086118 50.718118 12.830117 14.516706a8523.233882 8523.233882 0 0 1 135.710118 157.997176c5.240471 6.264471 10.420706 12.468706 15.450353 18.582589 58.187294 70.324706 100.472471 125.078588 122.699294 160.768A395.203765 395.203765 0 0 1 903.52896 501.428706C903.52896 719.239529 728.364725 896 511.999548 896v-120.470588c149.594353 0 271.058824-122.578824 271.058824-274.070588a274.763294 274.763294 0 0 0-41.562353-145.950118c-18.462118-29.605647-58.488471-81.498353-113.302588-147.696941a7670.241882 7670.241882 0 0 0-115.59153-135.890824 4437.714824 4437.714824 0 0 0-101.195294 117.338353zM454.866372 414.117647h120.470588v120.470588h-120.470588z"  horiz-adv-x="1024" />

    
    <glyph glyph-name="comment" unicode="&#58912;" d="M105.413486 793.6v-702.171429l92.16 87.771429h727.04v614.4h-819.2z m-87.771429 87.771429h994.742857v-789.942858H232.682057l-215.04-204.8V881.371429zM354.0992 457.142857h321.828571v58.514286h-321.828571z"  horiz-adv-x="1024" />

    
    <glyph glyph-name="menu" unicode="&#58913;" d="M0 767.9573330000001V896h1066.666667v-128.042667H0z m0-426.666666v128h1066.666667v-128H0z m0-426.666667v128h1066.666667v-128H0z"  horiz-adv-x="1066" />

    
    <glyph glyph-name="wechat" unicode="&#58914;" d="M991.247791 384.795045c-23.30305 0-43.499027-20.451854-43.499027-45.637425 0-20.433577 20.195977-40.88543 43.499027-40.88543 31.070734 0 54.373784 20.47013 54.373784 40.88543 0 25.167294-23.30305 45.619148-54.373784 45.619148M296.762061 707.2361539999999c-32.62427 0-66.820354-20.433577-66.820354-55.050029 0-33.026362 34.177807-55.068306 66.820354-55.068307 31.070734 0 55.927321 22.041944 55.927321 55.068307 0 34.616453-24.856587 55.050029-55.927321 55.050029M1089.120603-14.738036999999963l31.070733-113.261963-118.087065 67.642815c-45.052564-9.430882-88.551591-23.577204-133.622432-23.577204-208.173916 0-372.867082 144.698235-372.867082 324.012923 0 179.314688 164.674889 324.049476 372.848805 324.049476 197.335713 0 374.457172-144.734789 374.457173-324.049476 0-100.669177-66.802078-190.317383-153.800132-254.816571m-647.916184 154.147393c-57.462581 0-99.426348 9.430882-153.800132 25.185571l-156.907205-80.2356 45.052564 135.28563C65.248541 298.253913 0 397.351277 0 518.490585 0 732.421725 198.852696 896 441.240973 896 655.629036 896 846.768879 767.019901 884.05376 584.525033c-15.553644 3.161904-29.535474 4.751995-41.963768 4.751994-211.299266 0-374.420619-160.452924-374.420618-353.932211 0-33.026362 4.66061-62.927374 12.428293-94.381923-12.428294-1.571814-26.428401-1.571814-38.856694-1.571814m163.139629 457.745016c34.177807 0 55.927321 22.023667 55.927321 55.05003 0 34.616453-21.749514 55.050029-55.927321 55.050029-32.62427 0-63.695004-20.433577-63.695004-55.050029 0-33.044639 31.070734-55.050029 63.695004-55.05003m142.925375-212.359327c-21.749514 0-43.499027-20.433577-43.499027-45.619148 0-20.433577 21.749514-40.88543 43.499027-40.88543 32.642547 0 55.927321 20.47013 55.927321 40.88543 0 25.167294-23.284773 45.619148-55.927321 45.619148"  horiz-adv-x="1243" />

    
    <glyph glyph-name="weibo" unicode="&#58915;" d="M1028.989105 887.729398c-74.729152 17.467588-151.606617 2.409322-173.149976-1.706603-1.64637-0.160621-3.21243-1.726681-4.738334-2.027847-0.762952-0.160621-1.224739-0.923574-1.224739-0.923573a50.656005 50.656005 0 0 1-36.742168-48.768703 50.394995 50.394995 0 0 1 50.415073-50.334762s27.205266 3.634061 45.656661 10.841951c18.290773 7.348434 173.10982 5.461131 249.987285-123.377388 41.962366-94.043887 18.451395-156.987437 15.520052-167.106592 0 0-9.978611-24.434545-9.97861-48.487615 0-27.767442 22.446854-45.214952 50.234373-45.214951 23.249962 0 42.765474 3.152197 48.467538 42.383997h0.301165C1346.296875 727.569687 1162.72658 856.588905 1028.989105 887.729398m25.197497-404.605555c17.045957 0 31.542047 12.58871 33.971447 29.012259a13.552439 13.552439 0 0 1 0.461787 3.674216c25.839984 231.7969-190.336476 191.902535-190.336476 191.902536-19.194269 0-34.573778-15.499975-34.573777-34.81471 0-19.01357 15.379508-34.513544 34.573777-34.513545 155.280834 34.192302 121.008221-120.747212 121.008222-120.747211 0-19.154114 15.640518-34.513544 34.89502-34.513545M532.70883 176.457247c-13.37174-9.978611-29.835443-8.59325-36.90279 3.373052-7.368511 11.665136-4.59779 30.377541 8.914494 40.19553 15.700751 11.645059 31.983756 8.292085 39.051101-3.393129 7.087424-11.946224 2.007769-29.895676-11.062805-40.175453m-124.682439-106.010189c-39.512889-4.617868-71.336023 18.110074-71.336023 51.077637 0 32.827019 28.269384 67.220097 67.80235 71.336023 45.375573 4.296625 74.889774-21.784291 74.889774-54.751853 0-32.827019-32.023911-63.20456-71.356101-67.661807m53.346416 277.533872c-211.538514-24.715633-187.08389-222.440698-187.083891-222.440698s-2.16839-62.622307 56.699389-94.505674c123.778942-66.898854 251.232101-26.402159 315.641323 56.578923 64.409221 83.001159 26.602936 284.902383-185.256821 260.367449m41.962366-405.488973c-210.313775-9.797911-380.351709 95.429248-380.351708 235.511272 0 140.202491 170.037934 252.657617 380.351708 262.314985 210.474396 9.677445 380.833573-76.857387 380.833573-216.77879 0-140.041869-170.359177-271.510566-380.833573-281.047467m447.852893 455.020628c-49.973364 9.677445-25.679362 36.501236-25.679362 36.501235s48.889169 80.411138-9.677445 138.877363c-72.58084 72.380063-248.923167-9.215658-248.923167-9.215658-67.340563-20.860717-49.491499 9.516824-39.974676 61.196791 0 60.915703-20.900872 163.99455-200.315086 103.119002C247.364738 666.774449 93.489342 452.304593 93.489342 452.304593-13.544809 309.773091 0.630038 199.626899 0.630038 199.626899c26.723402-243.160871 285.645257-309.899104 487.024461-325.700244 211.859757-16.58417 497.806179 72.861927 584.521711 256.673155 86.695454 184.072237-70.854159 256.934165-120.988144 266.912775"  horiz-adv-x="1284" />

    
    <glyph glyph-name="heart" unicode="&#58916;" d="M598.400906 809.5547799999999l-34.957037-35.310138-50.387566 50.846598C404.336388 934.905769 203.492324 910.118052 93.642486 799.173599-24.717096 679.648783-33.827112 478.522238 83.331925 360.19796599999995l34.992347-35.345448 445.013667-449.498055 445.190218 449.427434 50.246326 50.846599c108.755225 109.814529 84.214679 312.60065-25.63516 423.545103-118.394892 119.560127-317.54407 128.740763-434.738417 10.381181z"  horiz-adv-x="1129" />

    
    <glyph glyph-name="rss" unicode="&#58917;" d="M102.4-128a102.4 102.4 0 1 1 0 204.8 102.4 102.4 0 0 1 0-204.8zM614.4-25.600000000000023a512 512 0 0 1-512 512 102.4 102.4 0 0 1 0-204.8 307.2 307.2 0 0 0 307.2-307.2 102.4 102.4 0 0 1 204.8 0zM1024-25.600000000000023C1024 483.396 611.396 896 102.4 896a102.4 102.4 0 0 1 0-204.8c395.878 0 716.8-320.922 716.8-716.8a102.4 102.4 0 0 1 204.8 0z"  horiz-adv-x="1024" />

    
    <glyph glyph-name="twitter" unicode="&#58918;" d="M1229.86231 877.956s-117.853-63.135-164.152-67.344C960.48431 974.764 560.62731 903.21 627.97031 587.534c-349.348-4.21-538.754 260.96-538.754 260.96s-117.853-189.407 75.762-345.14c-37.881-4.21-109.435 21.044-109.435 21.044S26.08131 360.24699999999996 253.36831 280.275c-21.045-29.463-113.643-8.418-113.643-8.418S164.97931 128.75 371.22031 90.87C228.11431-39.610000000000014-16.00869-1.7290000000000418 0.82731-14.355999999999995c206.242-189.406 1119.6-231.497 1128.018 643.98 50.508 16.836 134.689 143.107 134.689 143.107s-130.48-37.881-138.898-33.672c101.017 58.926 105.226 138.897 105.226 138.897"  horiz-adv-x="1264" />

    
    <glyph glyph-name="linkedin" unicode="&#58919;" d="M251.336-85.12800000000004h-199.8V578.904h199.792v-664.032h0.008z m728.664 0H780.2V267.46400000000006c0 91.08-32.312 138.088-96.96 138.088-52.88 0-85.2-26.44-99.896-76.384V-85.12H383.552s2.944 596.456 0 664.024h167.744l-0.272-132.216h2.936c41.136 67.576 105.784 111.648 196.856 111.648 67.576 0 123.408-17.632 164.536-67.584 41.136-47.008 64.64-111.648 64.64-199.784v-376.096H980zM254.272 743.44c0-55.824-47.016-99.896-102.832-99.896-55.832 0-102.832 44.072-102.832 99.896s47 99.896 102.832 99.896c55.816 0 102.832-44.072 102.832-99.896z"  horiz-adv-x="1024" />

    
    <glyph glyph-name="heart-o" unicode="&#58920;" d="M960.546133 306.414933L582.3488-75.43466699999999l-36.420267-36.795733-450.218666 454.621867C-16.657067 463.018667-8.704 661.162667 110.4896 781.5168 226.5088 898.6624 429.021867 915.182933 539.579733 803.498667l6.485334-6.5536c119.7056 113.152 316.2112 104.891733 435.4048-15.4624 115.746133-116.906667 132.096-320.512 21.777066-431.889067l-7.031466-7.133867-35.669334-36.0448z m-30.037333 115.234134c67.959467 68.608 56.763733 208.452267-21.8112 287.778133-82.363733 83.182933-218.794667 87.381333-296.618667 8.874667l-66.116266-66.7648-36.352 36.727466-42.769067 43.2128c-67.652267 68.3008-205.277867 57.070933-283.579733-22.016-82.6368-83.421867-86.869333-222.1056-8.772267-300.919466l65.399467-66.048 306.039466-309.179734 306.176 309.1456 78.370134 79.189334z"  horiz-adv-x="1092" />

    
    <glyph glyph-name="logo" unicode="&#58922;" d="M559.189333 455.338667v-71.424h431.616v-272.64c0-114.517333-47.616-156.757333-179.370666-156.757334h-305.152c-100.394667 0-179.285333 42.24-179.285334 156.757334V667.733333c0 114.56 78.933333 156.885333 179.285334 156.885334h628.309333V895.872H326.997333C212.096 895.872 0 853.845333 0 658.432v-537.898667c0-195.498667 212.096-237.312 326.997333-237.312h700.714667c114.901333 0 234.496 41.813333 234.496 237.312v334.805334H559.189333zM6577.706667 490.837333c0-114.517333-67.541333-131.754667-167.850667-131.754666h-440.106667V824.618667h440.106667c100.309333 0 167.850667-17.322667 167.850667-131.925334v-201.856z m5.973333 405.034667h-940.928v-1012.650667h326.997333v404.48h613.930667c114.901333 0 283.221333-0.170667 283.221333 180.650667V715.093333c0 180.949333-168.32 180.821333-283.221333 180.821334zM8750.378667 824.618667h366.933333c100.437333 0 179.242667-42.325333 179.242667-156.885334v-145.28c0-100.693333-78.805333-128.298667-179.2-128.298666h-366.933334V824.661333z m835.413333-306.474667V658.432c0 195.413333-212.053333 237.44-326.954667 237.44h-835.498666v-1012.650667h327.04V322.901333h298.453333l271.786667-439.68h326.997333l-274.56 444.074667c103.978667 11.221333 212.778667 50.773333 212.778667 190.848zM1496.746667 658.432v-537.898667c0-195.498667 212.224-237.312 327.125333-237.312h835.413333v71.253334h-656.213333c-100.352 0-179.2 42.282667-179.2 156.8v272.64h751.146667v71.424H1823.872V667.733333c0 114.56 78.848 156.885333 179.2 156.885334h656.213333V895.872h-835.413333c-114.901333 0-327.082667-42.026667-327.082667-237.44M2853.845333 658.432v-537.898667c0-195.498667 212.053333-237.312 326.997334-237.312h835.413333v71.253334H3360c-100.352 0-179.2 42.282667-179.2 156.8v272.64h751.232v71.424H3180.8V667.733333c0 114.56 78.848 156.885333 179.2 156.885334h656.213333V895.872H3180.8c-114.901333 0-326.997333-42.026667-326.997333-237.44M7338.709333 144.981333l228.565334 468.736 228.522666-468.736h-457.088zM7403.776 895.872l-493.781333-1012.650667h301.056l91.861333 188.416h528.64l91.861333-188.416h301.098667L7730.773333 895.872h-326.997333zM5415.808 896h-336.853333l-353.493334-345.386667c-55.808-54.570667-110.336-83.072-176.213333-91.605333V896h-327.082667v-1012.693333h327.082667V383.274667h133.12l396.586667-499.968h336.853333l-450.090667 570.112C4974.677333 461.226667 5415.808 896 5415.808 896M11079.338667 896h-336.896l-353.493334-345.386667c-55.850667-54.613333-110.336-83.072-176.298666-91.605333V896h-326.997334v-1012.693333h326.997334V383.274667h133.248l396.544-499.968h336.896l-450.133334 570.154666C10638.165333 461.226667 11079.338667 896 11079.338667 896"  horiz-adv-x="11093" />

    
    <glyph glyph-name="feedback" unicode="&#58923;" d="M932.917895 210.24336800000003V734.315789H161.684211v-524.072421h771.233684zM0 896h1094.602105v-847.440842H185.397895L0-128V896z"  horiz-adv-x="1131" />

    
    <glyph glyph-name="qrcode" unicode="&#58924;" d="M767.232-126.976h255.744v255.744h-255.744v-255.744z m109.568 474.88h-109.568v-109.568h-109.568V457.5232h109.568V530.5856h109.568v-146.1248h146.176v-146.1248h-146.1248v109.568z m-328.8064-219.136h109.6192v109.568h-109.6192v-109.568z m0-255.744h109.6704v109.568h-109.6192v-109.568zM401.92-17.408000000000015v-109.568H255.744v146.0736H401.92v109.6704h146.1248v-146.2272H401.8688z m-146.1248 36.5056h-109.568v109.6704H0v109.568h401.8688v-109.568H255.744v-109.6704zM0-126.976h146.176v146.0736H0v-146.0736zM657.664 676.7616V896h109.568v-109.6704h109.568v-109.568h-219.136z m219.136 109.568h146.176V896h-146.1248v-109.6704z m0-255.7952h146.176V676.7616h-146.1248v-146.2272zM109.568 347.904H0V896h547.9936v-548.096H109.568z m328.8576 438.4256H109.568v-328.7552h328.8064V786.3296h0.0512zM219.2384 567.0912000000001h109.568V676.7616h-109.568v-109.6704z"  horiz-adv-x="1024" />

    
    <glyph glyph-name="gotop" unicode="&#58925;" d="M957.217391 453.765565h-356.173913v-576.244869H422.956522V453.765565H66.782609L512 896z"  horiz-adv-x="1024" />

    
    <glyph glyph-name="zhihu" unicode="&#58934;" d="M596.782416 748.300804V-13.007465h81.886724l26.961172-92.29499L852.725453-13.007465h173.303908V748.300804z m341.967987-678.66914h-97.687225l-97.687224-61.320992-17.681513 61.195591h-41.758467V665.661675h254.814429zM550.885723 317.298248s0 82.639128-26.58497 82.639128h-183.085171c6.019238 94.803006 7.649449 180.577155 7.649449 257.071644H527.937376s6.897044 78.877104-30.096192 77.999299H188.101203A1489.385324 1489.385324 0 0 0 234.123297 877.338229S150.480962 877.338229 121.137175 802.097748C109.349499 770.622146 75.240481 650.864381 13.794088 528.473198c20.565732 2.131814 88.783768 4.012826 128.912025 77.623096 7.398647 20.565732 8.778056 23.324549 17.932314 50.912726h100.320642c0-36.742435-4.138226-233.997896-5.768437-257.071644H72.857866c-41.131463 0-54.549349-82.639128-54.549349-82.639128h229.608868C232.493087 142.865732 150.480962-4.104008 0-120.350551c71.729259-20.440331 143.207716 3.260421 178.445341 34.610621 0 0 80.381914 73.108668 124.522996 242.39975l188.853608-227.226253s27.713577 94.050601-4.389028 139.947295c-26.459569 31.2248-98.690431 115.619539-128.661223 146.217335L307.608167 175.093738a617.473549 617.473549 0 0 1 27.462776 142.32991z"  horiz-adv-x="1045" />

    


  </font>
</defs>
</svg>
