<?xml version="1.0" standalone="no"?>
<!DOCTYPE svg PUBLIC "-//W3C//DTD SVG 1.1//EN" "http://www.w3.org/Graphics/SVG/1.1/DTD/svg11.dtd" >
<svg xmlns="http://www.w3.org/2000/svg">
<metadata>
Created by FontForge 20120731 at Wed Apr 20 10:54:49 2016
 By admin
</metadata>
<defs>
<font id="iconfont" horiz-adv-x="1024" >
  <font-face 
    font-family="iconfont"
    font-weight="500"
    font-stretch="normal"
    units-per-em="1024"
    panose-1="2 0 6 3 0 0 0 0 0 0"
    ascent="896"
    descent="-128"
    x-height="792"
    bbox="0 -212 1024.26 896"
    underline-thickness="50"
    underline-position="-100"
    unicode-range="U+0078-E61E"
  />
<missing-glyph horiz-adv-x="374" 
d="M34 0v682h272v-682h-272zM68 34h204v614h-204v-614z" />
    <glyph glyph-name=".notdef" horiz-adv-x="374" 
d="M34 0v682h272v-682h-272zM68 34h204v614h-204v-614z" />
    <glyph glyph-name=".null" horiz-adv-x="0" 
 />
    <glyph glyph-name="nonmarkingreturn" horiz-adv-x="341" 
 />
    <glyph glyph-name="x" unicode="x" horiz-adv-x="1001" 
d="M281 543q-27 -1 -53 -1h-83q-18 0 -36.5 -6t-32.5 -18.5t-23 -32t-9 -45.5v-76h912v41q0 16 -0.5 30t-0.5 18q0 13 -5 29t-17 29.5t-31.5 22.5t-49.5 9h-133v-97h-438v97zM955 310v-52q0 -23 0.5 -52t0.5 -58t-10.5 -47.5t-26 -30t-33 -16t-31.5 -4.5q-14 -1 -29.5 -0.5
t-29.5 0.5h-32l-45 128h-439l-44 -128h-29h-34q-20 0 -45 1q-25 0 -41 9.5t-25.5 23t-13.5 29.5t-4 30v167h911zM163 247q-12 0 -21 -8.5t-9 -21.5t9 -21.5t21 -8.5q13 0 22 8.5t9 21.5t-9 21.5t-22 8.5zM316 123q-8 -26 -14 -48q-5 -19 -10.5 -37t-7.5 -25t-3 -15t1 -14.5
t9.5 -10.5t21.5 -4h37h67h81h80h64h36q23 0 34 12t2 38q-5 13 -9.5 30.5t-9.5 34.5q-5 19 -11 39h-368zM336 498v228q0 11 2.5 23t10 21.5t20.5 15.5t34 6h188q31 0 51.5 -14.5t20.5 -52.5v-227h-327z" />
    <glyph glyph-name="uniE600" unicode="&#xe600;" 
d="M896 83l-302 302l301 301l-82 82l-301 -301l-301 301l-82 -82l301 -301l-302 -302l82 -82l302 302l302 -302zM896 83z" />
    <glyph glyph-name="uniE601" unicode="&#xe601;" horiz-adv-x="1025" 
d="M1024 702q-58 -26 -121 -34q69 41 93 117q-63 -37 -134 -51q-62 66 -153 66q-87 0 -148.5 -61.5t-61.5 -148.5q0 -25 5 -48q-129 7 -241.5 65t-191.5 155q-28 -49 -28 -106q0 -54 25 -100t68 -75q-50 2 -95 26v-2q0 -76 48 -134t121 -72q-27 -8 -56 -8q-20 0 -39 4
q20 -63 74 -103.5t122 -42.5q-115 -90 -261 -90q-25 0 -50 3q147 -94 322 -94q112 0 210 35.5t168 95t120.5 136.5t75 161.5t24.5 169.5q0 14 -1 27q62 45 105 109z" />
    <glyph glyph-name="uniE602" unicode="&#xe602;" 
d="M711 17q11 -10 11 -25t-10.5 -25t-25 -10.5t-24.5 10.5l-401 405q-11 10 -11 24.5t11 25.5l401 405q10 10 24.5 10t25 -10.5t10.5 -25t-11 -24.5l-365 -380z" />
    <glyph glyph-name="uniE603" unicode="&#xe603;" horiz-adv-x="1025" 
d="M437 818q-101 0 -187 -50t-136 -136t-50 -187.5t50 -187.5t136 -136t187.5 -50t187.5 50t135.5 136t49.5 187.5t-49.5 187.5t-135.5 136t-188 50zM437 145q-124 0 -211.5 87.5t-87.5 211.5t87.5 212t211.5 88t212 -88t88 -212t-88 -211.5t-212 -87.5zM437 145zM949 -1
l-165 165q-22 -27 -51 -53l164 -164q11 -11 26 -11t26 11t11 26t-11 26zM949 -1z" />
    <glyph glyph-name="uniE604" unicode="&#xe604;" 
d="M693 549q15 0 35 -2q-23 109 -127.5 181.5t-238.5 72.5q-98 0 -181 -40.5t-132 -111.5t-49 -156q0 -143 145 -245l-36 -109l127 64q6 -2 25 -5.5t27 -5t22.5 -4t26.5 -3t25 -0.5q16 0 34 1q-11 38 -11 76q0 119 89.5 203t218.5 84zM498 647q21 0 33.5 -12.5t12.5 -33
t-12.5 -33t-33.5 -12.5t-37.5 13t-16.5 32.5t16.5 32.5t37.5 13zM245 556q-22 0 -38.5 13t-16.5 32.5t16.5 32.5t38.5 13q20 0 32.5 -12.5t12.5 -33t-12.5 -33t-32.5 -12.5zM1024 266q0 71 -43 132t-113.5 96t-151.5 35q-129 0 -218.5 -77t-89.5 -186t89.5 -186t218.5 -77
q37 0 109 18l99 -54l-27 90q127 96 127 209zM616 312q-13 0 -24.5 11t-11.5 24.5t11.5 25t24.5 11.5q20 0 33 -11t13 -25.5t-13 -25t-33 -10.5zM815 312q-13 0 -24.5 11t-11.5 24.5t11.5 25t24.5 11.5q20 0 33 -11t13 -25.5t-13 -25t-33 -10.5z" />
    <glyph glyph-name="uniE605" unicode="&#xe605;" horiz-adv-x="1025" 
d="M769 399q-9 3 -12.5 5t-6.5 7.5t2 14.5q26 65 1 102q-26 35 -87.5 34.5t-141.5 -33.5q-27 -11 -25 6q0 2 1 5q26 83 -11 120q-43 43 -141.5 4.5t-194.5 -135.5q-73 -73 -113 -147.5t-40 -139.5q0 -62 37 -114t98 -86.5t137.5 -53.5t157.5 -19q80 0 154 18t129.5 47.5
t96.5 67t62 78.5t21 80q0 53 -36 88t-88 51zM430 30q-83 -8 -156.5 12t-119 62t-51.5 97q-8 84 76 151.5t211 80.5q84 8 157 -12t119 -62t51 -97q8 -84 -76 -151.5t-211 -80.5zM954.5 709q-49.5 55 -119 77t-139.5 7q-16 -4 -24.5 -17.5t-5.5 -29.5t17 -24.5t29 -5.5
q50 11 99.5 -4.5t84.5 -54.5t45.5 -90.5t-5.5 -98.5q-5 -15 2.5 -29.5t23 -19.5t30 2.5t19.5 22.5q22 66 7.5 138t-64 127zM851 616q-24 27 -58 37.5t-68 3.5q-13 -3 -21 -15t-5 -25.5t15 -21t25 -4.5q37 7 62 -20.5t13 -62.5q-4 -14 2.5 -26.5t19.5 -16.5t25.5 2.5
t16.5 19.5q11 32 4 67t-31 62zM447 347q-60 16 -120 -10.5t-87 -79.5q-27 -54 -3.5 -107t84.5 -72q63 -21 127.5 6.5t90.5 85.5t-1.5 109.5t-90.5 67.5zM386 162q-13 -19 -36 -26.5t-42 1.5q-20 9 -25 28.5t7 38.5t34.5 26.5t42.5 -0.5t25.5 -28t-6.5 -40zM440 232
q-5 -8 -13.5 -11t-16 0t-10 10.5t2 15t13 10.5t16 0t10 -10.5t-1.5 -14.5z" />
    <glyph glyph-name="uniE606" unicode="&#xe606;" 
d="M879.5 -62q-32.5 0 -55.5 23t-23 55q0 134 -52 255t-140 209t-209.5 140t-254.5 52q-33 0 -56 23t-23 56t23 56t56 23q165 0 315.5 -64.5t259.5 -173.5t173.5 -260t64.5 -316q0 -32 -23 -55t-55.5 -23zM581 -62q-33 0 -56 23t-23 55q0 97 -47.5 179.5t-130 130.5
t-179.5 48q-33 0 -56 23t-23 55.5t23 55.5t56 23q105 0 200 -41t164 -109.5t110 -164t41 -200.5q0 -32 -23 -55t-56 -23zM351 82q0 -58 -41 -99t-99 -41t-99.5 41t-41.5 99t41.5 99.5t99.5 41.5t99 -41.5t41 -99.5z" />
    <glyph glyph-name="uniE607" unicode="&#xe607;" 
d="M415 556l-184 52q-11 3 -20.5 -2.5t-12.5 -16t2.5 -20t15.5 -12.5l185 -52q3 -1 7 -1q20 0 25 19q3 11 -2 20.5t-16 12.5zM415 239l-184 52q-11 3 -20.5 -2t-12.5 -15.5t2.5 -20.5t15.5 -12l185 -52q4 -1 7 -1q20 0 25 19q3 10 -2 19.5t-16 12.5zM415 398l-184 52
q-11 2 -20.5 -3t-12.5 -15.5t2.5 -20t15.5 -12.5l185 -52q3 -1 7 -1q20 0 25 19q3 11 -2 20.5t-16 12.5zM619 188q4 0 7 1l185 51q10 3 15.5 13t2.5 20.5t-12.5 15.5t-19.5 2l-185 -52q-10 -3 -15.5 -12.5t-2.5 -19.5q5 -19 25 -19zM875 805l-349 -95q-7 -2 -18.5 -1.5
t-18.5 1.5l-340 95q-22 6 -40.5 -8t-18.5 -37v-642q0 -19 13 -36t32 -22l340 -95q14 -3 33 -3q18 0 32 3l348 95q20 5 33 22t13 36v642q0 23 -18.5 37t-40.5 8zM149 110q-7 2 -7 8v633l333 -91q3 -1 11 -2v-641zM882 118q0 -1 -2.5 -4t-4.5 -3l-337 -91v639h2l342 93v-634z
M619 504q4 0 7 1l185 52q10 3 15.5 12.5t2.5 20t-12.5 16t-19.5 2.5l-185 -52q-10 -3 -15.5 -12.5t-2.5 -20.5q5 -19 25 -19zM619 346q4 0 7 1l185 52q10 3 15.5 12.5t2.5 20t-12.5 15.5t-19.5 3l-185 -52q-10 -3 -15.5 -12.5t-2.5 -20.5q5 -19 25 -19z" />
    <glyph glyph-name="uniE608" unicode="&#xe608;" 
d="M812 403q0 -17 -12 -29t-28 -12h-235q-6 -2 -11 -2q-28 0 -38 27q-3 8 -3 16v6v239q0 16 12 28t29 12t29 -12t12 -28v-204h205q16 0 28 -12t12 -29zM526 -45q-141 0 -257 81q-13 4 -21.5 14.5t-8.5 24.5v4q0 17 11.5 29t28.5 12q18 0 30 -13q97 -71 216 -71q100 0 185 49
t134 134t49 185t-49 184.5t-134 133.5t-185 49t-184.5 -49t-133.5 -133.5t-49 -184.5q0 -82 35 -157l-7 -6q26 -11 26 -38v-4q0 -17 -12 -29t-29 -12q-13 0 -24 8.5t-15 21.5q-55 100 -55 215q0 91 35.5 174.5t95.5 143.5t143.5 95.5t174.5 35.5t174 -35.5t143 -95.5
t96 -143.5t36 -174.5t-36 -174t-96 -143t-143 -95.5t-174 -35.5z" />
    <glyph glyph-name="uniE609" unicode="&#xe609;" 
d="M924 349v72h29v-72h-29zM796 421h57v-72h-57v72zM725 421v-72h-513l356 -359l-53 -53l-445 448l445 448l53 -53l-356 -359h513z" />
    <glyph glyph-name="uniE60A" unicode="&#xe60a;" 
d="M511.5 496q46.5 0 79.5 -33t33 -79.5t-33 -79.5t-79.5 -33t-79.5 33t-33 79.5t33 79.5t79.5 33z" />
    <glyph glyph-name="uniE60B" unicode="&#xe60b;" 
d="M909 858h-800q-48 0 -78.5 -30.5t-30.5 -78.5v-538q0 -48 30.5 -78.5t78.5 -30.5h313l282 -192q3 -1 8 -4t8 -4.5t7 -2.5t9 -1q16 0 29.5 14.5t8.5 36.5v153h135q48 0 78.5 30.5t30.5 78.5v538q4 47 -28 78t-81 31zM557 384h-307v51h307v-51zM774 518h-524v52h531v-52h-7
z" />
    <glyph glyph-name="uniE60C" unicode="&#xe60c;" 
d="M678 397l-365 380q-11 10 -11 24.5t10.5 25t25 10.5t24.5 -10l401 -405q11 -10 11 -25t-11 -25l-401 -405q-10 -10 -24.5 -10t-25 10t-10.5 25t11 25z" />
    <glyph glyph-name="uniE60D" unicode="&#xe60d;" 
d="M258 -64h-192v638h192v-638zM960 -64h-191v341q0 67 -24 100t-71 33q-73 0 -97 -74v-400h-191q2 575 0 638h151l11 -127h4q66 107 188 107q103 0 159 -64q61 -69 61 -194v-360zM261 734q0 -40 -29 -68t-70 -28t-70 28t-29 68t29 68t70 28t70 -28t29 -68z" />
    <glyph glyph-name="uniE60E" unicode="&#xe60e;" 
d="M887 472h-239q19 70 25.5 127.5t3 93.5t-15 63.5t-23 41t-26 22t-19.5 10t-9 1.5q-23 0 -36 -8.5t-15.5 -18t-3.5 -21t-2 -13.5q0 -46 -18.5 -94t-44.5 -83t-52 -63.5t-44 -42.5l-19 -15v-473q0 -21 18 -36.5t37 -21.5t34 -6h359q9 0 19 9.5t17 22.5t13 26t9 22l3 9
q39 134 61.5 232t24.5 128l3 31q0 18 -6.5 30t-15 17t-17.5 8t-15 3zM887 472zM252 472h-143q-13 0 -20.5 -7t-8.5 -14l-1 -8l29 -477q0 -14 7.5 -21.5t15.5 -8.5l8 -1h123q12 0 18.5 5t6.5 10l1 5v481q0 16 -9 25.5t-18 9.5zM252 472z" />
    <glyph glyph-name="uniE60F" unicode="&#xe60f;" 
d="M463 114l24 24l383 383q12 12 12 29.5t-12 30.5l-166 165q-12 12 -29.5 12t-30.5 -12l-383 -383l-24 -24l-17 -18q-7 -6 -10 -14v-1l-2 -6l-67 -249q-4 -15 8 -26q10 -11 26 -7l249 67q2 0 4 0.5t4 1.5q7 3 13 9zM674 701l150 -150l-375 -376l-150 150zM204 81l21 73
l53 -53zM315 111l-80 81l26 96l14 13l150 -150l-14 -13zM315 111z" />
    <glyph glyph-name="uniE610" unicode="&#xe610;" 
d="M581 610q0 34 9 47q12 20 51 20h88v154h-148q-49 0 -91 -16q-102 -39 -102 -182v-93h-95v-155h95v-448h193v448h132l18 155h-150v70z" />
    <glyph glyph-name="uniE611" unicode="&#xe611;" 
d="M511.5 823q-89.5 0 -170.5 -35t-140 -93.5t-93.5 -140t-34.5 -171t34.5 -170.5t93.5 -140t140 -93.5t170.5 -34.5t171 34.5t140 93.5t93.5 140t35 170.5t-35 171t-93.5 140t-140 93.5t-171 35zM429 109l-181 237l80 84l101 -129l318 259l39 -39z" />
    <glyph glyph-name="uniE612" unicode="&#xe612;" 
d="M742 -26h-512q-10 0 -17.5 7.5t-7.5 18.5t7.5 18.5t17.5 7.5h512q11 0 18.5 -7.5t7.5 -18.5t-7.5 -18.5t-18.5 -7.5zM844.5 742q-10.5 0 -18 -7.5t-7.5 -17.5v-768q0 -11 -7.5 -18.5t-17.5 -7.5h-564q-31 0 -53.5 22.5t-22.5 54.5t22.5 54.5t53.5 22.5h461
q32 0 54.5 22.5t22.5 54.5v614q0 32 -22.5 54.5t-54.5 22.5h-512q-32 0 -54.5 -22.5t-22.5 -54.5v-768q0 -53 37.5 -90.5t90.5 -37.5h564q31 0 53.5 22.5t22.5 54.5v768q0 10 -7.5 17.5t-18 7.5zM179 794h512q11 0 18.5 -7.5t7.5 -18.5v-614q0 -11 -7.5 -18.5t-18.5 -7.5
h-461q-42 0 -76 -26v666q0 11 7.5 18.5t17.5 7.5z" />
    <glyph glyph-name="uniE613" unicode="&#xe613;" 
d="M626 -45h-228q-14 0 -23.5 -9t-9.5 -21.5t9.5 -21.5t23.5 -9h228q14 0 23.5 9t9.5 21.5t-9.5 21.5t-23.5 9zM777 773q-110 101 -265 101t-265 -101q-53 -49 -81.5 -112t-28.5 -132q0 -94 52 -174q45 -70 119 -115v-168q0 -33 25 -56t61 -23h235q36 0 61.5 23t25.5 56v168
q74 44 119 114q52 81 52 175q0 69 -28.5 132t-81.5 112zM650 72q0 -8 -6 -13.5t-15 -5.5h-235q-8 0 -14.5 5.5t-6.5 13.5v71h277v-71zM711 544l-70 -133q-7 -15 -23 -16h-2q-15 0 -23 12l-71 101l-70 -101q-9 -12 -25 -11.5t-24 15.5l-70 133q-5 11 -2 22t13.5 16.5t22 2
t16.5 -13.5l49 -93l67 96q8 11 23.5 11t22.5 -11l67 -96l49 93q5 10 16.5 13.5t22 -2t14 -16.5t-2.5 -22z" />
    <glyph glyph-name="uniE614" unicode="&#xe614;" 
d="M516 579l194 -195l-194 -194q-8 -8 -8 -19t8 -19l1 -2q8 -7 19 -7t19 7l213 214q8 8 8 20t-8 20l-213 214q-8 8 -19 8t-19 -8l-1 -2q-8 -7 -8 -18.5t8 -18.5zM312 548l164 -164l-164 -164q-6 -6 -6 -15.5t6 -16.5l2 -1q6 -7 15.5 -7t15.5 7l180 180q7 7 7 17t-7 17
l-180 180q-6 7 -15.5 7t-15.5 -7l-2 -1q-6 -7 -6 -16t6 -16zM512 -127q-104 0 -198.5 40.5t-163 109t-109 163t-40.5 198.5t40.5 198.5t109 163t163 109t198.5 40.5t198.5 -40.5t163 -109t109 -163t40.5 -198.5t-40.5 -198.5t-109 -163t-163 -109t-198.5 -40.5zM512 842
q-93 0 -177.5 -36.5t-146 -98t-98 -146t-36.5 -177.5t36.5 -177.5t98 -146t146 -97.5t177.5 -36t177.5 36t146 97.5t98 146t36.5 177.5t-36.5 177.5t-98 146t-146 98t-177.5 36.5z" />
    <glyph glyph-name="uniE615" unicode="&#xe615;" 
d="M64 735h896v-99h-896v99zM64 132h896v-99h-896v99zM415 333h545v-99h-545v99zM415 534h545v-99h-545v99zM64 565v-362l197 181z" />
    <glyph glyph-name="uniE616" unicode="&#xe616;" 
d="M64 735h896v-99h-896v99zM64 132h896v-99h-896v99zM415 333h545v-99h-545v99zM415 534h545v-99h-545v99zM64 383l197 -182v363z" />
    <glyph glyph-name="uniE617" unicode="&#xe617;" 
d="M161 -128q-7 0 -13 3q-16 8 -16 26v221q-64 64 -98 144t-34 167q0 94 40.5 179.5t109 147.5t163.5 99t199 37t199 -37t163.5 -99t109 -147.5t40.5 -179.5t-40.5 -180t-109 -148t-163.5 -99t-199 -37h-4q-12 0 -20.5 9t-8.5 21t8.5 20t20.5 8h4q123 0 227.5 54.5
t165.5 148t61 203.5t-61 203t-165.5 147.5t-227.5 54.5t-227.5 -54.5t-165.5 -147.5t-61 -203q0 -78 31.5 -149.5t91.5 -127.5q9 -9 9 -21v-173l119 95q9 8 21 6.5t19.5 -10.5t6.5 -21t-11 -20l-166 -134q-8 -6 -18 -6zM279 432zM211 432q0 28 20 47.5t47.5 19.5t47.5 -19.5
t20 -47.5t-20 -47.5t-47.5 -19.5t-47.5 19.5t-20 47.5zM512 432zM445 432q0 28 19.5 47.5t47.5 19.5t47.5 -19.5t19.5 -47.5t-19.5 -47.5t-47.5 -19.5t-47.5 19.5t-19.5 47.5zM745 432zM678 432q0 28 20 47.5t47.5 19.5t47.5 -19.5t20 -47.5t-20 -47.5t-47.5 -19.5
t-47.5 19.5t-20 47.5z" />
    <glyph glyph-name="uniE618" unicode="&#xe618;" 
d="M848 112q-12 -12 -27 -12t-27 12l-282 272l-282 -272q-12 -12 -27 -12t-27 12q-11 13 -10.5 27.5t10.5 26.5l307 298q10 10 26 10t25 -10l308 -298q13 -9 14.5 -25.5t-8.5 -28.5z" />
    <glyph glyph-name="uniE619" unicode="&#xe619;" 
d="M957 289.5q0 -91.5 -35.5 -174t-95.5 -142.5t-143 -95.5t-174 -35.5t-174 35.5t-143 95.5t-95.5 142.5t-35.5 174t35.5 174t95.5 142.5t143 95.5t174 35.5t174 -35.5t143 -95.5t95.5 -142.5t35.5 -174zM568 29h-95q-7 0 -7 -5q0 -21 16 -36t38.5 -15t38.5 14.5t16 35.5
q0 6 -7 6zM671 178q6 18 6 48v132q0 53 -29 92.5t-83 55.5v13q0 21 -16.5 36t-39.5 15t-39.5 -15t-16.5 -36v-13q-39 -23 -75.5 -63t-36.5 -85v-132q0 -30 6 -48q-34 -2 -57 -17.5t-23 -36.5v-48q0 -2 9.5 -5.5t13.5 -3.5h462q1 0 1 1t-1 4t-1 4v48q0 21 -23 36.5t-57 17.5z
" />
    <glyph glyph-name="uniE61A" unicode="&#xe61a;" 
d="M679 -75q-12 -59 -59 -98t-108 -39t-108 39t-59 98h-311l137 273v273q0 92 45.5 171t124 124.5t171.5 45.5t171.5 -45.5t124 -124.5t45.5 -171v-273l137 -273h-311zM512 -144q33 0 59 19t37 50h-192q11 -31 37 -50t59 -19zM785 198v273q0 113 -80 193t-193 80t-193 -80
t-80 -193v-273l-102 -205h750z" />
    <glyph glyph-name="uniE61B" unicode="&#xe61b;" 
d="M863 72q-13 -18 -51 -23q-108 -14 -215 -17q-43 -1 -86 -1h-1q-48 0 -86 1q-108 3 -216 17q-38 5 -51 23q-9 13 -10 31h-83q0 -36 13 -63q12 -22 32 -34q31 -19 151.5 -29.5t192.5 -11.5h57h1q25 -1 56 0q72 1 192.5 11.5t151.5 29.5q20 12 32 34q13 27 13 63h-83
q-1 -18 -10 -31zM70 130h69q7 0 7 6v226q0 7 -7 7h-69q-7 0 -7 -7v-226q0 -6 7 -6zM952 472h-70q-7 0 -7 -6v-330q0 -6 7 -6h70q7 0 7 6v330q0 6 -7 6zM70 396h69q7 0 7 6v64q0 6 -7 6h-69q-7 0 -7 -6v-64q0 -6 7 -6zM157 528q13 19 51 24q108 14 216 17q37 1 86 1h1
q45 0 86 -1q107 -3 215 -17q38 -5 51 -24q9 -12 10 -30h83q0 36 -13 63q-12 22 -32 34q-31 19 -151.5 29.5t-192.5 11.5h-56h-1h-57q-72 -1 -192.5 -11.5t-151.5 -29.5q-20 -12 -32 -34q-13 -27 -13 -63h83q1 17 10 30zM831 472h-71q-4 0 -6 -4q-37 -104 -40 -122
q-2 8 -12 38.5t-19 57.5l-9 26h-1q-1 4 -6 4h-71q-6 -1 -6 -6v-3l82 -207v-120q0 -6 7 -6h69q7 0 7 6v120l82 207q1 2 1 3q0 5 -7 6zM479 472q-7 0 -7 -6v-330q0 -6 7 -6h70q7 0 7 6v330q0 6 -7 6h-70zM421 128h-31q-11 0 -12 3q19 6 30 19q12 11 12 29v244q0 17 -10 29
q-10 11 -26 18q-35 12 -76 11q-19 0 -39 -2q-19 -3 -35 -9q-16 -7 -26 -18q-11 -12 -11 -29v-244q1 -33 37 -45q16 -7 36 -9q20 -4 39 -4q15 0 28 2q1 -14 10 -23q9 -10 38 -11h36q7 0 7 7v25q0 7 -7 7zM336 184q0 -11 -5 -16q-6 -6 -22 -6q-14 0 -21 5q-8 4 -8 17v235
q0 12 8 17q7 4 21 4t20 -4q7 -4 7 -17v-235z" />
    <glyph glyph-name="uniE61C" unicode="&#xe61c;" 
d="M546 566q108 0 184 -76.5t76 -184.5v-10q0 -108 -76 -184.5t-184 -76.5h-68q-108 0 -184 76.5t-76 184.5v10q0 108 76 184.5t184 76.5h68zM546 717h-68q-112 0 -206.5 -55t-150 -150t-55.5 -207v-10q0 -112 55.5 -207t150 -150t206.5 -55h68q112 0 206.5 55t150 150
t55.5 207v10q0 112 -55.5 207t-150 150t-206.5 55zM446 459l216 -124q20 -12 20 -35t-20 -35l-216 -124q-20 -11 -40 0.5t-20 34.5v248q0 23 20 34.5t40 0.5z" />
    <glyph glyph-name="uniE61D" unicode="&#xe61d;" 
d="M544 331l-169 128q-17 13 -28.5 7t-11.5 -27v-278q0 -21 11.5 -27t28.5 7l169 128q17 13 17 31t-17 31zM924 386q-205 197 -538 320q-50 18 -96 -8.5t-55 -78.5q-1 -4 -2 -10q304 -94 491 -244q33 -26 32.5 -64.5t-35.5 -63.5q-214 -154 -488 -246q0 -5 1 -9
q9 -54 56 -80.5t98 -6.5q299 121 532 323q38 33 39 83t-35 85zM233 609q-3 1 -4 1q-46 14 -88 -6t-51 -60q-51 -240 -1 -487q8 -41 51.5 -61.5t89.5 -5.5q1 1 2 1h1q-52 313 0 618z" />
    <glyph glyph-name="uniE61E" unicode="&#xe61e;" 
d="M434 149q0 -28 15 -36q17 -10 38 4q220 143 263 172q23 15 23 34.5t-23 34.5q-109 72 -264 172q-1 1 -20 9q-30 -1 -31 -34q-1 -10 -1 -65v-291zM129 287.5q3 -1.5 3 -4.5q-1 -12 1.5 -26.5t17.5 -42t41 -50.5q1 54 22 95q1 2 4 2t4 -2q6 -10 14 -22t30 -33.5t48 -35.5
q-41 72 -42 153t39 151.5t113 113.5l9 6q-36 18 -81 21q-126 8 -213 -87l-9 -7q-26 -45 -27 -47q-46 -94 -34 -212q4 -45 17 -88q4 74 37 114q3 3 6 1.5zM947 395q-25 110 -97.5 194t-172.5 124t-205 29q-188 -20 -305 -161q-1 -2 -31 -47q57 72 122 112q122 76 268 61
t242 -114q111 -115 112 -276q0 -98 -61 -178t-155 -108q-96 -28 -190.5 6t-149.5 115q-1 2 -3 5q-66 31 -103 95q-21 -44 -19 -96v-7l-6 5q-67 55 -68 123q-33 -46 -32 -125q51 -145 181.5 -227.5t288.5 -65.5q77 9 145.5 42.5t118.5 85t84.5 118t42.5 140t-7 150.5z" />
  </font>
</defs>
</svg>
